<svg id="Capa_1" enable-background="new 0 0 512 512" height="512" viewBox="0 0 512 512" width="512" xmlns="http://www.w3.org/2000/svg"><g><g><g><path d="m449.427 400.761v-183.542c0-26.467-21.455-47.922-47.922-47.922h-268.299c-14.006 0-27.311 6.127-36.416 16.77l-78.505 91.771c-15.342 17.934-15.342 44.369 0 62.303l78.505 91.771c9.105 10.643 22.41 16.77 36.416 16.77h268.301c26.466-.001 47.92-21.455 47.92-47.921zm-372.978-66.912c-13.73 0-24.86-11.13-24.86-24.86 0-13.729 11.13-24.86 24.86-24.86s24.86 11.13 24.86 24.86c-.001 13.73-11.131 24.86-24.86 24.86z" fill="#eabc6b"/><g><path d="m464.078 169.297h-66.807c26.467 0 47.922 21.455 47.922 47.922v183.542c0 26.467-21.455 47.922-47.922 47.922h66.807c26.467 0 47.922-21.456 47.922-47.922v-183.542c0-26.467-21.455-47.922-47.922-47.922z" fill="#ebb044"/></g><g><g><g><g><path d="m324.889 88.04-5.143.412-156.944 156.945c-1.449 1.449-2.818 2.97-4.103 4.555h.001l.983 6.176 34.753 34.753 6.414 1.222c1.585-1.285 3.106-2.654 4.555-4.102l156.944-156.944.153-5.403z" fill="#dd636e"/></g><path d="m184.964 301.292c5.755-2.218 11.114-5.322 15.886-9.19l-42.15-42.15c-3.868 4.772-6.973 10.131-9.19 15.886l-17.84 46.3c-1.687 4.378 2.617 8.682 6.995 6.995z" fill="#938bc6"/><path d="m378.661 72.14c11.764 11.764 11.764 30.838 0 42.603l-16.312 16.312-42.603-42.603 16.312-16.312c11.765-11.764 30.839-11.764 42.603 0z" fill="#5766cb"/></g></g></g></g><g><path d="m61.906 296.458c-1.951 0-3.902-.745-5.391-2.233l-54.282-54.283c-2.978-2.978-2.978-7.805 0-10.783 2.978-2.976 7.805-2.976 10.782 0l54.282 54.283c2.978 2.978 2.978 7.805 0 10.783-1.488 1.488-3.44 2.233-5.391 2.233z" fill="#5766cb"/></g><g><path d="m420.681 272.145h-125.882c-4.211 0-7.624-3.413-7.624-7.624s3.413-7.624 7.624-7.624h125.882c4.211 0 7.624 3.413 7.624 7.624s-3.414 7.624-7.624 7.624z" fill="#f9f6f9"/></g><g><path d="m420.681 316.614h-125.882c-4.211 0-7.624-3.413-7.624-7.624s3.413-7.624 7.624-7.624h125.882c4.211 0 7.624 3.413 7.624 7.624s-3.414 7.624-7.624 7.624z" fill="#f9f6f9"/></g><g><path d="m420.681 361.082h-223.978c-4.211 0-7.624-3.413-7.624-7.624s3.413-7.624 7.624-7.624h223.978c4.211 0 7.624 3.413 7.624 7.624s-3.414 7.624-7.624 7.624z" fill="#f9f6f9"/></g></g><path d="m335.167 103.874-161.272 161.271-.001.001 10.783 10.782 161.272-161.271v-.001z" fill="#b93333"/></g></svg>