<svg id="Icons" height="512" viewBox="0 0 60 60" width="512" xmlns="http://www.w3.org/2000/svg"><path d="m30 1a22 22 0 0 0 -22 22c0 20 22 36 22 36s22-16 22-36a22 22 0 0 0 -22-22zm0 40a18 18 0 1 1 18-18 18 18 0 0 1 -18 18z" fill="#f44335"/><path d="m30 1c-.5 0-1 .023-1.5.057a22 22 0 0 1 20.5 21.943c0 16.815-15.547 30.8-20.5 34.827.938.764 1.5 1.173 1.5 1.173s22-16 22-36a22 22 0 0 0 -22-22z" fill="#c81e1e"/><path d="m30 5a18 18 0 1 0 18 18 18 18 0 0 0 -18-18zm10.53 23.02h-6.4a2.169 2.169 0 0 1 -.15-4.33 4 4 0 0 0 -7.86-.64 2.527 2.527 0 0 1 -.59 4.97h-6.4a2.147 2.147 0 0 1 -2.13-2.17 2.169 2.169 0 0 1 1-1.84 12 12 0 0 1 23.98-.55v.01a2.524 2.524 0 0 1 -1.45 4.55z" fill="#ffeb3a"/><path d="m41.98 23.46a2.449 2.449 0 0 0 -1.45-.48 2.719 2.719 0 0 0 -.63.08 2.792 2.792 0 0 0 -2.49-2.03 7.986 7.986 0 0 0 -14.83.02 2.218 2.218 0 0 0 -.37-.03 2.839 2.839 0 0 0 -2.8 2.68 1.32 1.32 0 0 0 -.28-.02 2.079 2.079 0 0 0 -1.13.33 12 12 0 0 1 23.98-.55z" fill="#e91e63"/><path d="m37.41 21.03a1.275 1.275 0 0 0 -.2-.01 2.839 2.839 0 0 0 -2.8 2.68 1.32 1.32 0 0 0 -.28-.02.757.757 0 0 0 -.15.01 4 4 0 0 0 -7.86-.64 2.885 2.885 0 0 0 -.59-.07 2.719 2.719 0 0 0 -.63.08 2.819 2.819 0 0 0 -2.32-2.01 7.986 7.986 0 0 1 14.83-.02z" fill="#02a9f4"/><path d="m28 25.5a2.5 2.5 0 0 1 -2.47 2.52h-6.4a2.147 2.147 0 0 1 -2.13-2.17 2.169 2.169 0 0 1 1-1.84 2.079 2.079 0 0 1 1.13-.33 1.32 1.32 0 0 1 .28.02 2.839 2.839 0 0 1 2.8-2.68 2.218 2.218 0 0 1 .37.03 2.819 2.819 0 0 1 2.32 2.01 2.719 2.719 0 0 1 .63-.08 2.885 2.885 0 0 1 .59.07 2.517 2.517 0 0 1 1.88 2.45z" fill="#f5f5f5"/><path d="m43 25.5a2.5 2.5 0 0 1 -2.47 2.52h-6.4a2.169 2.169 0 0 1 -.15-4.33.757.757 0 0 1 .15-.01 1.32 1.32 0 0 1 .28.02 2.839 2.839 0 0 1 2.8-2.68 1.275 1.275 0 0 1 .2.01 2.792 2.792 0 0 1 2.49 2.03 2.719 2.719 0 0 1 .63-.08 2.449 2.449 0 0 1 1.45.48v.01a2.5 2.5 0 0 1 1.02 2.03z" fill="#f5f5f5"/><path d="m29.412 59.809a1 1 0 0 0 1.176 0c.912-.665 22.412-16.533 22.412-36.809a23 23 0 0 0 -46 0c0 20.276 21.5 36.144 22.412 36.809zm.588-57.809a21.024 21.024 0 0 1 21 21c0 17.438-17.537 32.03-21 34.741-3.463-2.711-21-17.303-21-34.741a21.024 21.024 0 0 1 21-21z"/><path d="m49 23a19 19 0 1 0 -19 19 19.021 19.021 0 0 0 19-19zm-36 0a17 17 0 1 1 17 17 17.019 17.019 0 0 1 -17-17z"/><path d="m27.4 22.543a2.981 2.981 0 0 1 5.4.447 3.171 3.171 0 0 0 1.325 6.031h6.406a3.525 3.525 0 0 0 2.405-6.047 12.98 12.98 0 0 0 -25.911.54 3.172 3.172 0 0 0 2.1 5.507h6.406a3.524 3.524 0 0 0 1.869-6.478zm2.6-3.522a4.979 4.979 0 0 0 -4.524 2.885 3.87 3.87 0 0 0 -1.5-1.434 6.976 6.976 0 0 1 11.917-.2 3.825 3.825 0 0 0 -1.626 1.19 5 5 0 0 0 -4.267-2.441zm10.532 8h-6.406a1.172 1.172 0 0 1 0-2.343 1.229 1.229 0 0 1 .149.01 1 1 0 0 0 1.133-.926 1.8 1.8 0 0 1 3.537-.415 1 1 0 0 0 1.219.682 1.514 1.514 0 1 1 .368 2.992zm-10.532-14a10.963 10.963 0 0 1 10.8 8.987c-.091-.007-.178-.028-.271-.028h-.007a3.858 3.858 0 0 0 -2.445-1.849 8.943 8.943 0 0 0 -16.116-.09 3.779 3.779 0 0 0 -2.627 1.332 11.015 11.015 0 0 1 10.666-8.352zm-4.468 14h-6.406a1.172 1.172 0 0 1 0-2.343 1.229 1.229 0 0 1 .149.01 1 1 0 0 0 1.133-.926 1.8 1.8 0 0 1 3.537-.415 1 1 0 0 0 1.219.682 1.514 1.514 0 1 1 .368 2.992z"/></svg>