<svg id="Capa_1" enable-background="new 0 0 512 512" height="512" viewBox="0 0 512 512" width="512" xmlns="http://www.w3.org/2000/svg"><g><g><path d="m7.5 480.894c0 8.284 6.716 15 15 15h449c8.284 0 15-6.716 15-15v-439.788c0-8.284-6.716-15-15-15h-439c-8.284 0-15 6.716-15 15l-10 82.184z" fill="#f9f6f9"/><path d="m446.039 249.756h-380.078c-5.523 0-10-4.477-10-10v-75.749c0-5.523 4.477-10 10-10h380.078c5.523 0 10 4.477 10 10v75.749c0 5.523-4.477 10-10 10z" fill="#ffe187"/><g fill="#ea7bc1"><path d="m216 357.466h-150.039c-5.523 0-10-4.477-10-10v-45.749c0-5.523 4.477-10 10-10h150.039c5.523 0 10 4.477 10 10v45.749c0 5.523-4.477 10-10 10z"/><path d="m446.039 357.466h-150.039c-5.523 0-10-4.477-10-10v-45.749c0-5.523 4.477-10 10-10h150.039c5.523 0 10 4.477 10 10v45.749c0 5.523-4.477 10-10 10z"/><path d="m216 465.177h-150.039c-5.523 0-10-4.477-10-10v-45.749c0-5.523 4.477-10 10-10h150.039c5.523 0 10 4.477 10 10v45.749c0 5.523-4.477 10-10 10z"/><path d="m446.039 465.177h-150.039c-5.523 0-10-4.477-10-10v-45.749c0-5.523 4.477-10 10-10h150.039c5.523 0 10 4.477 10 10v45.749c0 5.523-4.477 10-10 10z"/></g><path d="m479.5 18.106h-20c8.284 0 15 4.716 15 13v449.788c0 8.284-6.716 15-15 15h30c8.284 0 15-6.716 15-15v-357.604l-10-92.184c0-8.284-6.716-13-15-13z" fill="#dedbec"/><path d="m477.5 16.106h-455c-8.284 0-15 6.716-15 15v92.184h485v-92.184c0-8.284-6.716-15-15-15z" fill="#95c7f8"/><path d="m489.5 16.106h-30c8.284 0 15 6.716 15 15v92.184h30v-92.184c0-8.284-6.716-15-15-15z" fill="#75b5f8"/><path d="m221.915 69.698c0 9.826-6.965 16.791-16.791 16.791-2.457 0-4.797.502-6.925-.398-6.386-2.701-10.866-9.024-10.866-16.393 0-7.34 4.445-13.642 10.79-16.36 2.149-.921 4.516-.431 7.002-.431 9.825 0 16.79 6.965 16.79 16.791z" fill="#ade4a4"/><path d="m205.124 51.907c-2.486 0-4.851.513-7 1.434 6.345 2.719 10.791 9.017 10.791 16.357s-4.446 13.638-10.791 16.357c2.149.921 4.514 1.434 7 1.434 9.826 0 17.791-7.965 17.791-17.791s-7.965-17.791-17.791-17.791z" fill="#8bd5a7"/><path d="m150.501 69.698c0 9.826-6.965 16.791-16.791 16.791-2.456 0-4.797.502-6.925-.398-6.386-2.701-10.866-9.024-10.866-16.393 0-7.34 4.445-13.642 10.79-16.36 2.149-.921 4.516-.431 7.002-.431 9.824 0 16.79 6.965 16.79 16.791z" fill="#ffe187"/><path d="m133.709 51.907c-2.486 0-4.851.513-7 1.434 6.345 2.719 10.791 9.017 10.791 16.357s-4.446 13.638-10.791 16.357c2.149.921 4.514 1.434 7 1.434 9.826 0 17.791-7.965 17.791-17.791s-7.965-17.791-17.791-17.791z" fill="#ffd26f"/><path d="m79.086 69.698c0 9.826-6.965 16.791-16.791 16.791-2.457 0-4.797.502-6.925-.398-6.386-2.701-10.866-9.024-10.866-16.393 0-7.34 4.445-13.642 10.79-16.36 2.149-.921 4.516-.431 7.002-.431 9.824 0 16.79 6.965 16.79 16.791z" fill="#ea7bc1"/><path d="m62.295 51.907c-2.486 0-4.851.513-7 1.434 6.345 2.719 10.791 9.017 10.791 16.357s-4.446 13.638-10.791 16.357c2.149.921 4.514 1.434 7 1.434 9.826 0 17.791-7.965 17.791-17.791s-7.966-17.791-17.791-17.791z" fill="#ea5bb1"/></g><g><path d="m179.833 69.697c0 13.946 11.346 25.292 25.292 25.292 13.945 0 25.291-11.346 25.291-25.292 0-13.945-11.346-25.291-25.291-25.291-13.946 0-25.292 11.346-25.292 25.291zm35.582 0c0 5.675-4.617 10.292-10.291 10.292-5.675 0-10.292-4.617-10.292-10.292s4.617-10.291 10.292-10.291 10.291 4.616 10.291 10.291z"/><path d="m108.418 69.697c0 13.946 11.346 25.292 25.292 25.292 13.945 0 25.291-11.346 25.291-25.292 0-13.945-11.346-25.291-25.291-25.291-13.946 0-25.292 11.346-25.292 25.291zm35.583 0c0 5.675-4.617 10.292-10.291 10.292-5.675 0-10.292-4.617-10.292-10.292s4.617-10.291 10.292-10.291c5.674 0 10.291 4.616 10.291 10.291z"/><path d="m37.003 69.697c0 13.946 11.346 25.292 25.291 25.292s25.291-11.346 25.291-25.292c0-13.945-11.346-25.291-25.291-25.291s-25.291 11.346-25.291 25.291zm35.582 0c0 5.675-4.617 10.292-10.291 10.292s-10.291-4.617-10.291-10.292 4.617-10.291 10.291-10.291 10.291 4.616 10.291 10.291z"/><path d="m489.5 8.606h-467c-12.407 0-22.5 10.093-22.5 22.499v291.272c0 4.142 3.358 7.5 7.5 7.5s7.5-3.358 7.5-7.5v-191.587h280.597c4.142 0 7.5-3.357 7.5-7.5s-3.358-7.5-7.5-7.5h-280.597v-84.685c0-4.136 3.364-7.5 7.5-7.5h467c4.136 0 7.5 3.364 7.5 7.5v84.685h-168.717c-4.142 0-7.5 3.357-7.5 7.5s3.358 7.5 7.5 7.5h168.717v350.104c0 4.136-3.364 7.5-7.5 7.5h-467c-4.136 0-7.5-3.364-7.5-7.5v-125.83c0-4.143-3.358-7.5-7.5-7.5s-7.5 3.357-7.5 7.5v125.831c0 12.406 10.093 22.5 22.5 22.5h467c12.407 0 22.5-10.094 22.5-22.5v-449.79c0-12.406-10.093-22.499-22.5-22.499z"/><path d="m48.461 347.467c0 9.649 7.851 17.5 17.5 17.5h150.039c9.649 0 17.5-7.851 17.5-17.5v-45.75c0-9.649-7.851-17.5-17.5-17.5h-150.039c-9.649 0-17.5 7.851-17.5 17.5zm15-45.75c0-1.379 1.122-2.5 2.5-2.5h150.039c1.378 0 2.5 1.121 2.5 2.5v45.75c0 1.379-1.122 2.5-2.5 2.5h-150.039c-1.378 0-2.5-1.121-2.5-2.5z"/><path d="m463.539 301.717c0-9.649-7.851-17.5-17.5-17.5h-150.039c-9.649 0-17.5 7.851-17.5 17.5v45.75c0 9.649 7.851 17.5 17.5 17.5h150.039c9.649 0 17.5-7.851 17.5-17.5zm-15 45.75c0 1.379-1.122 2.5-2.5 2.5h-150.039c-1.378 0-2.5-1.121-2.5-2.5v-45.75c0-1.379 1.122-2.5 2.5-2.5h150.039c1.378 0 2.5 1.121 2.5 2.5z"/><path d="m48.461 455.177c0 9.649 7.851 17.5 17.5 17.5h150.039c9.649 0 17.5-7.851 17.5-17.5v-45.749c0-9.649-7.851-17.5-17.5-17.5h-150.039c-9.649 0-17.5 7.851-17.5 17.5zm15-45.749c0-1.379 1.122-2.5 2.5-2.5h150.039c1.378 0 2.5 1.121 2.5 2.5v45.749c0 1.379-1.122 2.5-2.5 2.5h-150.039c-1.378 0-2.5-1.121-2.5-2.5z"/><path d="m446.039 391.928h-150.039c-9.649 0-17.5 7.851-17.5 17.5v45.749c0 9.649 7.851 17.5 17.5 17.5h150.039c9.649 0 17.5-7.851 17.5-17.5v-45.749c0-9.65-7.85-17.5-17.5-17.5zm2.5 63.249c0 1.379-1.122 2.5-2.5 2.5h-150.039c-1.378 0-2.5-1.121-2.5-2.5v-45.749c0-1.379 1.122-2.5 2.5-2.5h150.039c1.378 0 2.5 1.121 2.5 2.5z"/><path d="m463.539 164.007c0-9.649-7.851-17.5-17.5-17.5h-380.078c-9.649 0-17.5 7.851-17.5 17.5v75.749c0 9.649 7.851 17.5 17.5 17.5h56.801c4.142 0 7.5-3.357 7.5-7.5s-3.358-7.5-7.5-7.5h-56.801c-1.378 0-2.5-1.121-2.5-2.5v-75.749c0-1.379 1.122-2.5 2.5-2.5h380.078c1.378 0 2.5 1.121 2.5 2.5v75.749c0 1.379-1.122 2.5-2.5 2.5h-290.591c-4.142 0-7.5 3.357-7.5 7.5s3.358 7.5 7.5 7.5h290.591c9.649 0 17.5-7.851 17.5-17.5z"/></g></g></svg>